<svg width="512" height="512" viewBox="0 0 512 512" fill="none" xmlns="http://www.w3.org/2000/svg">
<g clip-path="url(#clip0_2_23)">
<path d="M512 0H0V512H512V0Z" fill="url(#paint0_radial_2_23)"/>
<path fill-rule="evenodd" clip-rule="evenodd" d="M143.48 95.2545C143.48 56.7849 174.665 25.599 213.135 25.599C251.604 25.599 282.791 56.7849 282.791 95.2545V111.33H288.721C303.216 111.33 314.908 111.33 324.424 111.977C334.209 112.646 342.862 114.053 351.057 117.448C370.748 125.604 386.396 141.251 394.553 160.944C397.946 169.138 399.354 177.789 400.021 187.575C400.422 193.436 400.575 200.119 400.634 207.776H416.744C455.214 207.776 486.4 238.961 486.4 277.432C486.4 315.902 455.214 347.089 416.744 347.089H400.67V368.136C400.67 385.557 400.67 399.608 399.742 410.989C398.783 422.704 396.76 432.994 391.911 442.514C384.207 457.638 371.91 469.934 356.787 477.639C347.266 482.491 336.975 484.512 325.259 485.47C313.881 486.4 299.83 486.4 282.408 486.4H266.716C257.838 486.4 250.641 479.203 250.641 470.326V432.818C250.641 415.062 236.248 400.669 218.494 400.669C200.739 400.669 186.344 415.062 186.344 432.818V470.326C186.344 479.203 179.148 486.4 170.271 486.4H143.864C126.441 486.4 112.391 486.4 101.01 485.47C89.2958 484.512 79.0057 482.491 69.4835 477.639C54.3611 469.934 42.0649 457.638 34.3603 442.514C29.5096 432.994 27.4872 422.704 26.5298 410.989C25.6 399.608 25.6 385.557 25.6 368.136V331.013C25.6 322.137 32.7977 314.939 41.6758 314.939H73.8232C94.5387 314.939 111.331 298.148 111.331 277.432C111.331 256.718 94.5387 239.925 73.8232 239.925H41.6758C32.7977 239.925 25.6 232.729 25.6 223.85V223.278C25.6 208.784 25.6 197.091 26.2492 187.575C26.9168 177.789 28.3238 169.138 31.7184 160.944C39.8756 141.251 55.5223 125.604 75.2148 117.448C83.4078 114.053 92.0606 112.646 101.847 111.977C111.363 111.33 123.054 111.33 137.551 111.33H143.48V95.2545ZM213.135 57.7485C192.422 57.7485 175.628 74.54 175.628 95.2545V127.403C175.628 136.282 168.433 143.478 159.553 143.478H138.122C122.922 143.478 112.327 143.486 104.035 144.052C95.8853 144.609 91.1401 145.649 87.5172 147.149C75.7022 152.044 66.3142 161.43 61.4195 173.247C59.9193 176.87 58.88 181.616 58.3239 189.764C57.983 194.763 57.8447 200.599 57.7874 207.776H73.8232C112.294 207.776 143.48 238.961 143.48 277.432C143.48 315.902 112.294 347.089 73.8232 347.089H57.7495V367.449C57.7495 385.718 57.7618 398.456 58.5707 408.371C59.3664 418.099 60.8491 423.686 63.0057 427.918C67.629 436.994 75.0059 444.37 84.0796 448.993C88.3128 451.152 93.9028 452.633 103.63 453.428C113.544 454.239 126.281 454.25 144.551 454.25H154.195V432.818C154.195 397.307 182.983 368.521 218.494 368.521C254.004 368.521 282.791 397.307 282.791 432.818V454.25C300.49 454.248 312.921 454.221 322.641 453.428C332.368 452.633 337.958 451.152 342.192 448.993C351.266 444.37 358.643 436.994 363.266 427.918C365.422 423.686 366.905 418.099 367.698 408.371C368.508 398.456 368.522 385.718 368.522 367.449V331.013C368.522 322.137 375.719 314.939 384.595 314.939H416.744C437.459 314.939 454.25 298.148 454.25 277.432C454.25 256.718 437.459 239.925 416.744 239.925H384.595C375.719 239.925 368.522 232.729 368.522 223.85C368.522 208.651 368.513 198.057 367.947 189.764C367.392 181.616 366.352 176.87 364.85 173.247C359.956 161.43 350.569 152.044 338.755 147.149C335.13 145.649 330.383 144.609 322.235 144.052C313.944 143.486 303.349 143.478 288.149 143.478H266.716C257.838 143.478 250.641 136.282 250.641 127.403V95.2545C250.641 74.54 233.849 57.7485 213.135 57.7485Z" fill="url(#paint1_radial_2_23)"/>
<path d="M229.656 396.369C201.942 403.581 172.677 392.727 156.359 369.197C146.489 355.364 142.576 338.135 145.553 321.399C146.046 318.667 146.735 315.984 147.621 313.375L149.221 308.428L153.651 311.652C163.816 319.135 175.188 324.82 187.272 328.462L190.472 329.423L190.152 332.622C189.783 337.151 191.014 341.68 193.647 345.396C198.545 352.484 207.356 355.758 215.701 353.592C217.57 353.1 219.343 352.312 220.992 351.279L306.989 296.491C311.222 293.808 314.151 289.477 315.037 284.529C315.923 279.483 314.766 274.29 311.789 270.106C306.865 263.017 298.055 259.744 289.71 261.91C287.84 262.402 286.068 263.19 284.444 264.224L251.635 285.144C246.244 288.565 240.337 291.15 234.159 292.823C206.446 300.01 177.181 289.181 160.863 265.651C150.993 251.819 147.08 234.59 150.083 217.828C153.011 201.412 162.758 186.989 176.861 178.128L262.833 123.315C268.248 119.869 274.131 117.286 280.309 115.636C308.022 108.425 337.287 119.28 353.605 142.809C363.475 156.641 367.389 173.87 364.41 190.606C363.917 193.338 363.228 196.021 362.367 198.63L360.743 203.577L356.337 200.354C346.172 192.871 334.776 187.186 322.691 183.543L319.492 182.559L319.812 179.383C320.181 174.855 318.95 170.326 316.341 166.61C311.419 159.521 302.607 156.247 294.264 158.414C292.393 158.905 290.621 159.693 288.972 160.727L203 215.515C198.742 218.198 195.813 222.53 194.927 227.476C194.041 232.523 195.198 237.715 198.176 241.9C203.098 248.989 211.91 252.261 220.253 250.096C222.124 249.603 223.897 248.816 225.545 247.782L258.33 226.861C263.72 223.415 269.626 220.832 275.804 219.182C303.518 211.996 332.783 222.824 349.101 246.355C358.97 260.187 362.884 277.416 359.906 294.177C356.952 310.594 347.23 325.017 333.103 333.902L247.13 388.69C241.715 392.136 235.833 394.72 229.656 396.369ZM388.998 120.239C354.737 71.1864 287.003 56.6395 238.073 87.849L152.076 142.637C128.596 157.404 112.425 181.402 107.527 208.697C103.417 231.464 107.035 254.92 117.766 275.398C110.407 286.572 105.386 299.1 102.998 312.268C98.0511 340.08 104.525 368.729 120.966 391.741C155.252 440.82 222.961 455.341 271.915 424.182L357.888 369.369C381.368 354.601 397.538 330.604 402.437 303.309C406.547 280.541 402.953 257.085 392.223 236.609C399.557 225.434 404.578 212.906 406.941 199.738C411.912 171.901 405.44 143.252 388.998 120.239Z" fill="url(#paint2_linear_2_23)" stroke="url(#paint3_linear_2_23)" stroke-width="11"/>
</g>
<defs>
<radialGradient id="paint0_radial_2_23" cx="0" cy="0" r="1" gradientUnits="userSpaceOnUse" gradientTransform="translate(89.6959 80.1527) rotate(45.7068) scale(446.016 367.258)">
<stop stop-color="#2F3B52"/>
<stop offset="1" stop-color="#000C25"/>
</radialGradient>
<radialGradient id="paint1_radial_2_23" cx="0" cy="0" r="1" gradientUnits="userSpaceOnUse" gradientTransform="translate(124.123 129.082) rotate(46.6858) scale(328.719 282.956)">
<stop stop-color="#4A546A"/>
<stop offset="1" stop-color="#14243C"/>
</radialGradient>
<linearGradient id="paint2_linear_2_23" x1="123.39" y1="89.1922" x2="385.778" y2="410.727" gradientUnits="userSpaceOnUse">
<stop stop-color="#BFBFBF"/>
<stop offset="0.5" stop-color="#CACCFF"/>
<stop offset="1" stop-color="#282A46"/>
</linearGradient>
<linearGradient id="paint3_linear_2_23" x1="125.451" y1="81.7006" x2="380.392" y2="428.205" gradientUnits="userSpaceOnUse">
<stop stop-color="#CDDBE8" stop-opacity="0.66"/>
<stop offset="1" stop-color="#505B66" stop-opacity="0.61"/>
</linearGradient>
<clipPath id="clip0_2_23">
<rect width="512" height="512" fill="white"/>
</clipPath>
</defs>
</svg>
